<?xml version="1.0" encoding="UTF-8"?>
<svg width="1942px" height="624px" viewBox="0 0 1942 624" version="1.1" xmlns="http://www.w3.org/2000/svg" xmlns:xlink="http://www.w3.org/1999/xlink">
    <title>Artboard</title>
    <g id="Artboard" stroke="none" stroke-width="1" fill="none" fill-rule="evenodd">
        <polygon id="Path" fill="#FFCC00" fill-rule="nonzero" points="0 0 1942 0 1942 624.302297 0 624.302297"></polygon>
        <polygon id="Path" fill="#FFFFFF" fill-rule="nonzero" points="1423.16069 468.13245 1442.56841 377.051204 201.533143 377.051204 182.151901 468.13245"></polygon>
        <path d="M1638.93323,217.336003 C1638.93323,217.336003 1663.18626,103.153483 1663.3054,102.518032 L1508.97035,102.518032 C1508.90415,102.915189 1476.89334,252.272545 1476.76096,252.894757 L1514.96741,252.894757 C1515.06008,252.484362 1539.56465,138.090025 1539.56465,138.090025 L1617.52649,138.090025 C1617.52649,138.090025 1593.04841,252.272545 1592.90278,252.894757 L1708.66069,252.894757 L1693.29073,324.700669 L1578.1418,324.700669 C1578.04912,325.124303 1555.14642,432.091813 1555.14642,432.091813 L1467.90436,432.091813 C1467.82493,432.502208 1460.45106,467.544658 1460.31866,468.140393 L1585.78044,468.140393 C1585.85987,467.743237 1608.89495,360.510956 1608.89495,360.510956 L1723.60702,360.510956 C1723.69968,360.100561 1754.18808,217.944977 1754.32046,217.336003 L1638.93323,217.336003 Z" id="Path" fill="#FF0000" fill-rule="nonzero"></path>
        <path d="M316.772205,217.175669 C351.274872,217.546757 385.373552,230.251053 398.868899,264.260148 C407.898553,287.027469 406.32628,315.27379 398.246541,337.98654 C381.552054,384.940046 337.13533,406.310331 289.748756,406.768734 C268.661366,406.972468 247.417478,407.041592 226.017089,406.976106 C225.411031,406.975248 224.837384,406.702412 224.454412,406.23287 C224.071439,405.763329 223.919616,405.146707 224.040829,404.553122 L261.513346,219.99157 C261.906414,218.056093 263.092898,217.081078 265.072798,217.066526 C282.353248,216.950106 299.586383,216.986487 316.772205,217.175669 Z M359.302115,288.608847 C355.25584,256.184586 324.897896,250.639189 298.042374,252.248441 C297.362727,252.292502 296.797118,252.78223 296.660984,253.444507 L273.068587,368.745267 C272.793035,370.100809 273.347766,370.803951 274.732781,370.854693 C282.208964,371.159146 289.656142,370.985173 297.074313,370.332773 C340.343356,366.494489 364.501362,330.22107 359.302115,288.608847 Z" id="Shape" fill="#000000" fill-rule="nonzero"></path>
        <path d="M478.395463,328.117649 C475.319191,341.608154 472.435641,355.34956 469.744813,369.341867 C469.628453,369.945486 469.675724,370.396381 469.886627,370.694554 C470.268614,371.225764 470.765819,371.546277 471.206587,371.545438 L536.157366,371.545438 C536.785669,371.546805 537.380527,371.828714 537.779427,372.314147 C538.178326,372.799581 538.339576,373.437803 538.219122,374.054453 L532.295664,404.293546 C531.992645,405.863088 530.615779,406.99892 529.012126,406.99892 L422.662589,406.99892 C422.021045,406.99892 421.413531,406.710139 421.007651,406.211244 C420.60177,405.712349 420.440417,405.056433 420.568107,404.424451 L458.377881,219.608178 C458.668539,218.16857 459.936776,217.131888 461.410518,217.131888 L561.520241,217.131888 C562.164573,217.131888 562.774767,217.42139 563.182681,217.918074 C563.590596,218.414758 563.75318,219.067138 563.625633,219.695448 L557.702174,249.596369 C557.389925,251.168542 556.010609,252.301225 554.407728,252.301742 L495.09678,252.301742 C494.032791,252.301923 493.118498,253.051643 492.915027,254.090779 L485.627973,291.071488 C485.546213,291.485357 485.654443,291.914074 485.922849,292.239543 C486.191256,292.565013 486.591521,292.752896 487.013386,292.751438 L543.760774,292.762347 C543.955983,292.762406 544.147354,292.791848 544.32803,292.849617 C545.855257,293.329602 546.429785,294.482295 546.051615,296.307695 C544.073492,305.820137 542.157186,315.154402 540.302696,324.310491 C540.00251,325.77603 538.71732,326.828792 537.226425,326.830415 L479.999051,326.830415 C479.12635,326.830415 478.59182,327.259493 478.395463,328.117649 Z" id="Path" fill="#000000" fill-rule="nonzero"></path>
        <path d="M614.722282,370.192751 C614.656959,370.525809 614.742735,370.870612 614.956065,371.132522 C615.169395,371.394432 615.487866,371.545931 615.824067,371.545438 L668.044318,371.545438 C668.637551,371.543743 669.199056,371.813275 669.570396,372.27798 C669.941735,372.742685 670.08264,373.35217 669.953352,373.934457 L663.157192,403.988101 C662.755455,405.748296 661.194169,406.998919 659.393669,406.998919 L567.760054,406.998919 C567.115702,406.998919 566.5055,406.709149 566.097587,406.210354 C565.689674,405.711559 565.527101,405.05605 565.654663,404.424451 L603.464438,219.608178 C603.755095,218.16857 605.023332,217.131887 606.497074,217.131887 L643.565053,217.131887 C644.195213,217.131887 644.791879,217.415769 645.189628,217.906608 C645.587376,218.397447 645.743936,219.042423 645.6159,219.662721 L614.722282,370.192751 Z" id="Path" fill="#000000" fill-rule="nonzero"></path>
        <path d="M768.274039,220.011802 L730.704257,405.078977 C730.475809,406.198151 729.490213,407.001229 728.347964,406.998924 L690.254561,406.998924 C689.533044,406.998924 688.849157,406.677146 688.392265,406.118721 C687.935372,405.560297 687.753963,404.825946 687.898268,404.119006 L725.751678,219.051831 C725.980126,217.932657 726.965722,217.129579 728.107971,217.131883 L765.928654,217.131883 C766.64826,217.131883 767.329076,217.458329 767.783492,218.01631 C768.237908,218.57429 768.417963,219.306733 768.274039,220.011802 L768.274039,220.011802 Z" id="Path" fill="#000000" fill-rule="nonzero"></path>
        <path d="M845.715352,362.218445 C846.660778,362.312987 847.391665,361.873 847.908013,360.898484 C875.536275,308.623689 899.190111,262.112357 918.86952,221.364489 C920.145846,218.724568 920.702193,217.164615 924.073001,217.153706 C937.396237,217.117343 950.704929,217.070072 963.999076,217.011892 C965.133587,217.011892 965.824475,217.15007 966.071741,217.426425 C966.782041,218.256106 966.911968,219.434113 966.399004,220.393609 C933.563625,282.588106 899.888272,344.164441 865.372944,405.122612 C864.66751,406.366211 863.365731,406.988011 861.467606,406.988011 C844.922648,407.002556 828.37769,406.998919 811.832732,406.977102 C810.530953,406.977102 809.770975,406.020767 809.5528,404.108097 C802.651189,342.735393 796.971359,281.297236 792.513311,219.793627 C792.465052,219.113866 792.700312,218.444449 793.163227,217.944336 C793.626142,217.444222 794.275416,217.158026 794.956874,217.153706 C807.211052,217.110071 819.654315,217.110071 832.286664,217.153706 C834.453871,217.168251 835.577474,217.997317 835.657471,219.640904 C837.810134,266.897668 840.846407,314.099888 844.766289,361.247565 C844.810168,361.756321 845.207723,362.163016 845.715352,362.218445 Z" id="Path" fill="#000000" fill-rule="nonzero"></path>
        <path d="M1010.74313,328.117649 C1007.66686,341.608154 1004.77967,355.34956 1002.08157,369.341867 C1001.96521,369.945486 1002.01612,370.396381 1002.23429,370.694554 C1002.61628,371.225764 1003.11348,371.546277 1003.55425,371.545438 L1068.50503,371.545438 C1069.13333,371.546805 1069.72819,371.828714 1070.12709,372.314147 C1070.52599,372.799581 1070.68724,373.437803 1070.56679,374.054453 L1064.64333,404.293546 C1064.34031,405.863088 1062.96344,406.99892 1061.35979,406.99892 L955.032072,406.99892 C954.487813,406.99892 953.968797,406.783028 953.592115,406.398937 C952.879409,405.671686 952.653961,404.675353 952.915772,403.409936 C965.569938,342.226317 978.187741,280.951792 990.769182,219.58636 C991.059341,218.159582 992.313109,217.131888 993.769092,217.131888 L1093.87882,217.131888 C1094.52032,217.131888 1095.12781,217.42044 1095.53369,217.91722 C1095.93957,218.414 1096.10094,219.066771 1095.9733,219.695448 L1090.04984,249.596369 C1089.73759,251.168542 1088.35827,252.301225 1086.75539,252.301742 L1027.56444,252.301742 C1026.43066,252.30134 1025.45353,253.104958 1025.22997,254.221685 L1017.92109,291.333299 C1017.85259,291.682217 1017.94383,292.043482 1018.1698,292.318026 C1018.39577,292.59257 1018.73275,292.751575 1019.08833,292.751438 L1076.39207,292.762347 C1077.00665,292.764101 1077.58841,293.039941 1077.97873,293.514662 C1078.36906,293.989383 1078.52725,294.613486 1078.41019,295.216818 L1072.75945,324.026863 C1072.39582,325.895898 1071.26131,326.830415 1069.35591,326.830415 L1012.34672,326.830415 C1011.47401,326.830415 1010.93949,327.259493 1010.74313,328.117649 Z" id="Path" fill="#000000" fill-rule="nonzero"></path>
        <path d="M1214.64731,331.624853 C1214.14745,332.060033 1214.03252,332.792426 1214.37498,333.360305 C1228.17335,356.681583 1241.32537,380.366688 1253.83105,404.415619 C1254.11303,404.957222 1254.09206,405.60708 1253.77578,406.129308 C1253.45949,406.651536 1252.89385,406.970219 1252.28418,406.969681 C1239.23383,407.006064 1226.09996,407.009702 1212.88257,406.980596 C1210.1701,406.969681 1208.89557,406.21656 1207.65372,403.684328 C1196.78205,381.556401 1186.35339,361.938876 1176.36773,344.831754 C1175.4091,343.18362 1173.45917,342.474159 1171.44389,342.452329 C1166.15693,342.401393 1160.64484,342.401393 1154.90763,342.452329 C1153.71223,342.463703 1152.6868,343.309301 1152.44571,344.482481 L1140.1579,404.295556 C1139.84155,405.86426 1138.46535,406.992036 1136.86807,406.991511 L1100.18982,406.991511 C1099.53267,406.991577 1098.91024,406.695906 1098.49433,406.186113 C1098.07843,405.67632 1097.91304,405.006316 1098.04381,404.361045 L1135.50639,219.508081 C1135.79973,218.083607 1137.04462,217.059339 1138.4912,217.052252 C1155.96429,216.943104 1173.67704,217.004954 1191.62945,217.237803 C1224.3207,217.66348 1252.89422,230.804893 1255.78098,267.282137 C1258.0795,296.38098 1242.1206,319.80413 1215.71487,331.013624 C1215.25735,331.21009 1214.90149,331.413833 1214.64731,331.624853 Z M1213.85747,272.746705 C1212.20623,251.89235 1186.75971,251.267377 1171.7455,252.287069 C1170.71387,252.356677 1169.85735,253.112062 1169.65685,254.129094 C1166.08464,272.081529 1162.56346,289.898735 1159.09331,307.580714 C1158.97667,308.180103 1158.96938,308.644264 1159.07144,308.973197 C1159.22757,309.480379 1159.68657,309.835406 1160.21965,309.861316 C1173.9435,310.486289 1192.31486,309.269237 1202.9112,300.563476 C1211.14186,293.802074 1214.79062,284.529817 1213.85747,272.746705 Z" id="Shape" fill="#000000" fill-rule="nonzero"></path>
        <path d="M1340.72232,294.289573 C1343.17679,294.75865 1345.39127,290.667864 1346.88577,288.606108 C1368.72512,258.577918 1384.59373,236.258587 1394.49161,221.648116 C1396.4661,218.735477 1397.14244,217.153706 1401.11323,217.153706 C1415.25099,217.124616 1429.47602,217.12098 1443.78832,217.142797 C1444.39037,217.14258 1444.94712,217.462506 1445.25009,217.982772 C1445.76644,218.862745 1445.61008,219.859079 1444.78102,220.971773 C1416.3455,258.941543 1387.22274,296.373147 1357.41273,333.266586 C1355.99459,335.022897 1354.82735,337.444642 1354.391,339.626395 C1350.10022,361.131204 1345.81308,382.741465 1341.52957,404.457177 C1341.23805,405.932938 1339.94086,406.998921 1338.43148,406.998921 L1300.53443,406.998921 C1299.90764,406.998921 1299.31413,406.716936 1298.92,406.229567 C1298.52586,405.742198 1298.37345,405.102649 1298.5054,404.489904 C1303.29071,381.952398 1307.97057,359.880333 1312.54498,338.273708 C1313.25405,334.913809 1312.70861,332.077531 1311.42138,328.597635 C1298.0836,292.75871 1285.37489,256.661611 1273.29525,220.306339 C1273.19485,220.005054 1273.16498,219.687707 1273.20798,219.379094 C1273.39707,217.815504 1274.32795,217.037346 1276.00062,217.044568 C1288.90933,217.080981 1301.52349,217.124616 1313.84313,217.175523 C1315.46183,217.183118 1316.87805,218.260874 1317.31211,219.815444 C1324.03191,244.054717 1331.19533,268.232173 1338.80238,292.347814 C1339.15873,293.460507 1339.79871,294.107761 1340.72232,294.289573 Z" id="Path" fill="#000000" fill-rule="nonzero"></path>
    </g>
</svg>